<svg width="100" height="100" viewBox="0 0 100 100" fill="none" xmlns="http://www.w3.org/2000/svg">
<g clip-path="url(#clip0_350_6436)">
<path d="M91.7533 75.5348C95.6352 68.6191 97.8516 60.6432 97.8516 52.1484C97.8516 25.7207 76.4277 4.29688 50 4.29688C23.5723 4.29688 2.14844 25.7207 2.14844 52.1484C2.14844 60.6432 4.36484 68.6191 8.24668 75.5348H91.7533Z" fill="#F5585C"/>
<path d="M68.4498 50.133H66.6391V44.3061C70.8478 44.2924 74.2875 40.8453 74.2875 36.6334V21.6494C74.2875 17.4291 70.8346 13.9762 66.6143 13.9762H33.3859C29.1656 13.9762 25.7127 17.4291 25.7127 21.6494V36.6334C25.7127 40.8453 29.1521 44.2924 33.3609 44.3061V50.133H31.5504C19.6523 50.133 9.91757 59.8678 9.91757 71.7658V75.535H90.0826V71.7657C90.0826 59.8676 80.3478 50.133 68.4498 50.133ZM62.0055 50.133H37.9943V44.3069H62.0055V50.133Z" fill="#E34450"/>
<path d="M91.9717 75.1442C90.0492 69.8758 86.151 65.0159 78.36 64.379C77.0492 64.2717 76.3519 63.7631 74.8072 62.8922C70.959 60.7223 67.0172 59.1047 62.7115 58.111C62.1047 57.5042 61.6387 56.729 61.2801 55.8713L49.9998 66.212L38.5732 56.1973C38.2551 56.884 37.8621 57.5077 37.3744 58.0202C37.3457 58.0504 37.3178 58.0817 37.2883 58.1112C32.973 59.1071 29.0506 60.7172 25.1928 62.8924C23.648 63.7635 22.9508 64.2719 21.64 64.3792C13.8488 65.0161 9.95078 69.876 8.02832 75.1444C16.1617 89.9577 31.9074 100 50 100C68.0926 100 83.8383 89.9577 91.9717 75.1442Z" fill="#6393E4"/>
<path d="M60.1576 49.8101C59.1314 51.0052 58.0549 52.0046 57.026 52.8036C55.0215 54.3603 52.5476 55.2058 50 55.2058C47.4523 55.2058 44.9787 54.3603 42.9742 52.8036C41.9453 52.0046 40.8685 51.005 39.8426 49.8101C39.7769 51.7167 39.4898 54.2194 38.5734 56.197L50 66.2118L61.2803 55.8712C60.4777 53.9501 60.2195 51.613 60.1576 49.8101Z" fill="#F9BD91"/>
<path d="M39.8424 49.8101C39.7768 51.7167 39.4896 54.2194 38.5732 56.197L45.4631 62.2354L46.4951 54.656C45.2221 54.2494 44.0303 53.6224 42.974 52.8036C41.9453 52.0046 40.8684 51.0052 39.8424 49.8101Z" fill="#E5A876"/>
<path d="M8.02832 75.1442C9.97056 78.6793 12.3507 81.9555 15.1123 84.8954C15.5252 73.1793 20.1014 66.5254 21.902 64.3508C21.817 64.362 21.7303 64.3717 21.64 64.3791C13.849 65.0159 9.95078 69.8756 8.02832 75.1442Z" fill="#5D80D3"/>
<path d="M46.5371 0.217226C36.0717 1.6432 35.0769 7.5768 35.0723 9.75375C35.0713 10.2102 34.8183 10.6334 34.4078 10.833C28.964 13.4813 31.899 26.2446 31.899 26.2446C32.4457 26.2811 33.018 26.5024 33.4447 26.7092C33.5487 26.0562 33.7217 25.4161 33.9607 24.7996C34.1443 24.328 34.3738 23.8516 34.6607 23.4014C35.1566 22.6205 35.387 21.7004 35.3178 20.778C35.1221 18.1153 35.2164 12.8686 38.731 11.2871C41.7086 9.9473 45.3611 10.7231 47.6902 11.4977C49.2041 12.0008 50.8402 12.0008 52.3541 11.4977C54.6834 10.7231 58.3357 9.9473 61.3133 11.2871C64.818 12.8641 64.9217 18.0854 64.7283 20.7551C64.6609 21.6832 64.8816 22.6141 65.3834 23.4012C65.6795 23.8659 65.9146 24.3584 66.1012 24.845C66.3312 25.4475 66.4983 26.0721 66.5998 26.709C67.1377 26.4485 67.9066 26.1645 68.5644 26.2575C68.6449 23.4666 68.9025 20.458 68.9025 20.458C72.0039 5.26859 57.8056 -1.31793 46.5371 0.217226Z" fill="#494970"/>
<path d="M47.7824 0.0830078C47.3642 0.117383 46.9484 0.161328 46.5371 0.217383C36.0717 1.64336 35.0769 7.57695 35.0723 9.75391C35.0713 10.2104 34.8183 10.6336 34.4078 10.8332C28.964 13.4814 31.899 26.2447 31.899 26.2447C32.4457 26.2812 33.018 26.5025 33.4447 26.7094C33.9683 23.4502 35.4959 23.2031 35.3178 20.7781C35.1221 18.1154 35.2164 12.8688 38.731 11.2873C41.3392 10.1137 44.465 10.5635 46.766 11.2137C42.7584 8.32422 43.3162 2.19746 47.7824 0.0830078Z" fill="#3A3A60"/>
<path d="M69.7406 26.6201C68.9256 25.873 67.3017 26.2517 66.5998 26.7092C66.753 27.6708 66.763 28.6497 66.6295 29.6142L65.801 35.648C65.801 36.1344 65.7855 36.6115 65.7574 37.0805C67.7775 37.6898 68.7808 35.8762 68.95 34.6316C69.0226 34.0959 69.1419 33.5675 69.3066 33.0525C69.8443 31.3744 71.7828 28.4918 69.7406 26.6201Z" fill="#F9BD91"/>
<path d="M69.7246 26.6201C68.8953 25.873 67.2432 26.2517 66.5289 26.7092C66.6854 27.667 66.6943 28.6467 66.5592 29.6142L65.7162 35.648C65.7162 36.1344 65.7006 36.6115 65.6719 37.0805C67.7273 37.6898 68.7482 35.8762 68.9203 34.6316C68.9943 34.0956 69.1157 33.5671 69.2832 33.0525C69.8301 31.3744 71.8025 28.4918 69.7246 26.6201Z" fill="#F9BD91"/>
<path d="M66.157 32.492L65.7162 35.6481C65.7162 36.1344 65.7006 36.6116 65.6719 37.0805C67.7273 37.6899 68.7482 35.8762 68.9203 34.6317C69.0795 33.4797 69.3707 32.7721 69.6494 32.1252C68.8332 33.2653 67.1957 33.434 66.157 32.492Z" fill="#E5A876"/>
<path d="M30.2771 26.6201C31.1064 25.873 32.7586 26.2517 33.4728 26.7092C33.317 27.6705 33.3068 28.6499 33.4426 29.6142L34.2855 35.648C34.2855 36.1344 34.3012 36.6115 34.3299 37.0805C32.2744 37.6898 31.2535 35.8762 31.0814 34.6316C31.0075 34.0956 30.886 33.5671 30.7186 33.0525C30.1717 31.3744 28.1992 28.4918 30.2771 26.6201Z" fill="#F9BD91"/>
<path d="M33.8447 32.492L34.2856 35.6481C34.2856 36.1344 34.3012 36.6116 34.3299 37.0805C32.2744 37.6899 31.2535 35.8762 31.0815 34.6317C30.9223 33.4797 30.6311 32.7721 30.3524 32.1252C31.1686 33.2653 32.8061 33.434 33.8447 32.492Z" fill="#E5A876"/>
<path d="M66.0998 24.7766C65.9129 24.2891 65.6773 23.7954 65.3805 23.3295C64.8777 22.5407 64.6566 21.6079 64.724 20.6776C64.9178 18.002 64.8139 12.769 61.3016 11.1887C58.3176 9.84594 54.6574 10.6235 52.3232 11.3996C50.8057 11.9037 49.1659 11.9037 47.6484 11.3996C45.3143 10.6235 41.6539 9.84613 38.6701 11.1887C35.1479 12.7737 35.0533 18.0321 35.2494 20.7006C35.3189 21.6251 35.088 22.5473 34.591 23.3299C34.3035 23.7811 34.0734 24.2586 33.8895 24.7311C33.2926 26.2643 33.1188 27.927 33.3422 29.5551L34.1727 35.6036C34.1727 44.2991 38.8143 50.2094 42.7625 53.2754C44.8234 54.8758 47.3666 55.7452 49.9859 55.7452C52.6053 55.7452 55.1484 54.8758 57.2094 53.2754C61.1576 50.2094 65.7992 44.2991 65.7992 35.6036L66.6295 29.5565C66.8506 27.9444 66.6828 26.2979 66.0998 24.7766Z" fill="#FCD2AE"/>
<path d="M48.7672 53.2754C45.8084 50.2094 42.3301 44.299 42.3301 35.6035L41.7078 29.5551C41.5402 27.9269 41.6707 26.2642 42.118 24.731C42.2558 24.2584 42.4281 23.7808 42.6437 23.3299C43.0176 22.5471 43.1879 21.6236 43.1371 20.7006C42.9902 18.032 43.0609 12.7736 45.7006 11.1887C45.8407 11.1046 45.985 11.0276 46.1328 10.958C43.9008 10.4 41.0676 10.1099 38.6703 11.1887C35.148 12.7736 35.0535 18.032 35.2496 20.7006C35.3191 21.625 35.0882 22.5472 34.5912 23.3299C34.3037 23.781 34.0736 24.2586 33.8896 24.731C33.2928 26.2642 33.1189 27.9269 33.3424 29.5551L34.1728 35.6035C34.1728 44.299 38.8144 50.2094 42.7627 53.2754C44.8236 54.8758 47.3668 55.7451 49.9859 55.7451C50.7965 55.7451 51.5996 55.6615 52.3836 55.499C51.0726 55.1367 49.8336 54.3806 48.7672 53.2754Z" fill="#F9BD91"/>
<path d="M50.1006 65.9391L50 66.0313L49.8303 65.8824L44.6348 68.1283L46.4008 70.4908C46.6674 70.8482 46.8622 71.2539 46.9744 71.6854L50.9869 67.1446L50.1006 65.9391Z" fill="#5D80D3"/>
<path d="M39.3676 55.2572C39.2686 55.157 39.1374 55.0949 38.9972 55.082C38.8569 55.0691 38.7166 55.1061 38.601 55.1865L33.2965 58.8795C33.2315 58.9247 33.1766 58.9829 33.1354 59.0505C33.0941 59.118 33.0674 59.1935 33.0568 59.2719C33.0463 59.3504 33.0522 59.4301 33.0741 59.5062C33.0961 59.5822 33.1336 59.6529 33.1844 59.7137L41.5084 69.6912C41.8513 70.1023 42.337 70.3686 42.868 70.4365C43.399 70.5045 43.9361 70.3691 44.3715 70.0576L50 66.0312L39.3676 55.2572Z" fill="#A0CBF9"/>
<path d="M39.3676 55.2572C39.2686 55.157 39.1374 55.0949 38.9972 55.082C38.8569 55.0691 38.7166 55.1061 38.601 55.1865L33.2478 58.9133C33.1891 58.9542 33.1394 59.0069 33.1021 59.068C33.0648 59.1292 33.0406 59.1974 33.031 59.2684C33.0215 59.3394 33.0268 59.4116 33.0466 59.4804C33.0665 59.5492 33.1004 59.6131 33.1463 59.6682L37.9709 65.4514C37.9678 65.3791 37.9654 65.3064 37.9654 65.2332C37.9654 62.5826 40.1141 60.434 42.7646 60.434C43.5894 60.434 44.3652 60.6422 45.0432 61.0086L39.3676 55.2572ZM50 66.0312L47.4197 69.5408C46.9837 70.134 46.7485 70.8509 46.7484 71.5871V85.2982C46.7484 85.5388 46.844 85.7696 47.0142 85.9397C47.1843 86.1099 47.415 86.2055 47.6557 86.2055H52.0084C52.249 86.2055 52.4798 86.1099 52.6499 85.9397C52.82 85.7696 52.9156 85.5388 52.9156 85.2982V72.7826C52.9156 72.0373 53.1568 71.3119 53.6031 70.7148L55.3693 68.3521L50 66.0312Z" fill="#82B4F2"/>
<path d="M61.3986 55.1866C61.283 55.1061 61.1428 55.0691 61.0025 55.082C60.8623 55.0949 60.7311 55.157 60.6322 55.2573L50 66.0313L55.6287 70.0578C56.0641 70.3694 56.6012 70.5047 57.1322 70.4367C57.6632 70.3688 58.1489 70.1026 58.4918 69.6914L66.8535 59.6684C66.8994 59.6134 66.9334 59.5495 66.9532 59.4806C66.9731 59.4118 66.9784 59.3396 66.9689 59.2686C66.9593 59.1976 66.9351 59.1294 66.8978 59.0682C66.8604 59.0071 66.8108 58.9544 66.7519 58.9135L61.3986 55.1866Z" fill="#A0CBF9"/>
<path d="M74.4799 83.519L72.4814 84.3715C70.3951 85.2616 67.9601 84.2829 67.0701 82.1965L66.6322 81.1702C65.7422 79.0838 66.7209 76.6489 68.8072 75.7588L70.8057 74.9063C72.892 74.0163 75.3269 74.995 76.217 77.0813L76.6549 78.1077C77.5449 80.1938 76.5662 82.629 74.4799 83.519ZM24.9738 83.519L26.9723 84.3715C29.0584 85.2616 31.4936 84.2829 32.3836 82.1965L32.8215 81.1702C33.7115 79.0838 32.7328 76.6489 30.6465 75.7588L28.648 74.9063C26.5617 74.0163 24.1268 74.995 23.2367 77.0813L22.7988 78.1077C21.9088 80.1938 22.8875 82.629 24.9738 83.519Z" fill="#E5A876"/>
<path d="M36.9223 82.6938C40.6607 80.1846 45.159 78.7202 50 78.7202C54.9176 78.7202 59.4807 80.2323 63.2537 82.8147L67.4646 76.16C62.4725 72.8083 56.4648 70.8518 50 70.8518C43.6115 70.8518 37.6703 72.7631 32.7135 76.0428L36.9223 82.6938Z" fill="#494970"/>
<path d="M38.2846 78.1662C37.266 76.4022 37.6061 74.2307 38.9738 72.8502C36.7738 73.6759 34.6738 74.7468 32.7137 76.0428L36.9225 82.694C38.342 81.741 39.8615 80.9463 41.4539 80.324C40.1705 80.1297 38.984 79.3776 38.2846 78.1662Z" fill="#3A3A60"/>
<path d="M67.1555 75.9565L62.852 82.5454C64.3737 83.5413 65.7754 84.7095 67.0291 86.0269C68.1781 87.2347 68.6295 88.988 68.1125 90.5729C67.9835 90.9689 67.9181 91.3827 67.9186 91.7991C67.9186 93.4522 68.9291 94.8616 70.351 95.4587L70.3586 95.4622C73.412 94.0239 76.3047 92.2666 78.9883 90.2194C76.5576 84.3579 72.4039 79.3915 67.1555 75.9565Z" fill="#F5585C"/>
<path d="M21.0119 90.2192C23.6955 92.2664 26.5883 94.0238 29.6418 95.4622L29.6469 95.4598C31.0707 94.8627 32.0814 93.4514 32.0814 91.7989C32.0814 91.3708 32.0133 90.9586 31.8875 90.5727C31.3705 88.9877 31.8221 87.2344 32.9709 86.0266C34.2246 84.7092 35.6262 83.541 37.1478 82.5452L32.8443 75.9563C27.5961 79.3915 23.4424 84.3579 21.0119 90.2192Z" fill="#E34450"/>
<path d="M50 100C53.2988 100 56.519 99.6646 59.6297 99.0289C59.4951 97.6648 59.0703 96.3452 58.3838 95.1588C55.9488 90.941 50.7979 89.2502 46.4027 91.0127L46.3594 91.0308C46.1858 91.1015 46.0135 91.1781 45.8424 91.2596C45.7996 91.2799 45.7567 91.3 45.7141 91.3211C45.5277 91.4133 45.3424 91.5098 45.1598 91.6152C42.4149 93.2 40.7393 95.9351 40.3897 98.8637C40.383 98.9187 40.3785 98.9742 40.3729 99.0293C43.5411 99.676 46.7665 100.001 50 100Z" fill="#494970"/>
<path d="M76.8164 77.7071L72.6795 79.4719C70.4398 80.4274 69.3891 83.0417 70.3445 85.2813L73.8988 93.6128C77.9128 91.2927 81.5699 88.404 84.7565 85.0364L82.6258 80.0421C81.6703 77.8024 79.0561 76.7516 76.8164 77.7071Z" fill="#FCD2AE"/>
<path d="M72.6795 79.4719C70.4398 80.4274 69.3891 83.0417 70.3445 85.2813L73.8988 93.6128C75.5711 92.6466 77.1835 91.5802 78.7272 90.4194L75.5557 82.985C74.7844 81.1772 75.2443 79.1417 76.551 77.8202L72.6795 79.4719Z" fill="#F9BD91"/>
<path d="M26.774 79.4719L22.6371 77.7071C20.3975 76.7516 17.7832 77.8024 16.8277 80.0421L14.8687 84.6339C18.0265 88.0478 21.663 90.9854 25.6646 93.3547L29.1088 85.2813C30.0644 83.0417 29.0139 80.4274 26.774 79.4719Z" fill="#FCD2AE"/>
<path d="M22.6373 77.7071C20.3977 76.7516 17.7834 77.8024 16.8279 80.0421L14.869 84.6339C16.3361 86.2212 17.9084 87.7079 19.5754 89.0838L22.2848 82.7329C23.1635 80.6731 25.319 79.5346 27.4412 79.8323C27.2297 79.6932 27.0065 79.5726 26.7742 79.4719L22.6373 77.7071Z" fill="#F9BD91"/>
</g>
<defs>
<clipPath id="clip0_350_6436">
<rect width="100" height="100" fill="white"/>
</clipPath>
</defs>
</svg>
