<svg width="273" height="61" viewBox="0 0 273 61" fill="none" xmlns="http://www.w3.org/2000/svg">
<path d="M25.8491 0.530273L42.9998 10.4826L10.197 29.7223C8.62475 26.9864 9.55687 23.4874 12.279 21.9072L31.7873 10.582L25.8491 7.13609L5.69182 18.8332V38.8384L50.1048 13.0554L48.142 10.0305H60L55.2568 20.9954L53.218 17.8533L51.6983 18.735V45.5303L25.8491 60.5303L8.2993 50.5529L14.0652 47.1124L14.0861 47.1244L22.425 42.184L41.7683 30.9546C43.3406 33.6906 42.4084 37.1895 39.6863 38.7698L19.7023 50.3711L25.8491 53.9245L46.0064 42.2274V22.0372L2.60748 47.2157L0 45.5303V15.5303L25.8491 0.530273Z" fill="#047857"/>
<path d="M84.6224 46.563H66L75.4954 15.5609L72.9578 10.5303H95.673C95.864 10.5303 96.0414 10.5984 96.2051 10.7348C96.3961 10.8711 96.5598 11.0483 96.6962 11.2665C96.8599 11.4846 96.9827 11.7164 97.0646 11.9618C97.1464 12.2072 97.1874 12.4253 97.1874 12.6162C97.1874 12.7798 97.1737 12.8752 97.1464 12.9025L92.8899 26.8902L88.8789 29.1806L91.4983 31.3892L87.5692 44.1908C87.5146 44.3817 87.3646 44.6134 87.119 44.8861C86.9007 45.1588 86.6415 45.4178 86.3414 45.6632C86.0412 45.9086 85.7274 46.1131 85.4 46.2767C85.0999 46.4676 84.8407 46.563 84.6224 46.563ZM86.9144 21.9413L88.265 17.4832H82.4122L80.4477 23.9454L78.1148 25.6223L78.565 29.9986L75.6182 39.61H81.4709L83.8038 32.0027L80.6114 33.8023L79.8338 26.4403L86.9144 21.9413Z" fill="black"/>
<path d="M94.1235 46.563L111.354 10.5303H123.756L118.885 46.563H110.781L111.15 43.0865L105.87 34.4158H112.664L114.67 20.7552L114.71 19.7327L108.53 33.0661H103.046L106.156 38.383L102.227 46.563H94.1235Z" fill="black"/>
<path d="M126.661 46.563L145.202 17.4832H143.032L134.151 22.1867L137.712 10.5303H157.93L139.308 39.61H141.559L150.441 34.9475L146.88 46.563H126.661Z" fill="black"/>
<path d="M154.669 46.563L171.899 10.5303H184.301L179.43 46.563H171.326L171.695 43.0865L166.415 34.4158H173.209L175.215 20.7552L175.256 19.7327L169.075 33.0661H163.591L166.702 38.383L162.772 46.563H154.669Z" fill="black"/>
<path d="M199.812 30.9393L206.688 27.0538L209.635 17.4832H203.782L200.426 28.4444L198.093 30.1622L198.543 34.5385L194.86 46.563H187.37L196.865 15.5609L194.328 10.5303H217.043C217.234 10.5303 217.411 10.5984 217.575 10.7348C217.766 10.8711 217.93 11.0483 218.066 11.2665C218.23 11.4846 218.353 11.7164 218.435 11.9618C218.516 12.2072 218.557 12.4253 218.557 12.6162C218.557 12.7798 218.544 12.8752 218.516 12.9025L212.868 31.4301L208.571 33.8841L209.471 46.3585L201.613 50.5303L199.812 30.9393Z" fill="black"/>
<path d="M223.996 10.5303H235.538L229.194 31.3074H234.474L240.818 10.5303H248.307L239.794 38.3012H233.41L230.872 46.563H223.423L225.961 38.3012H221.786C221.595 38.3012 221.404 38.2331 221.213 38.0967C221.049 37.9604 220.885 37.7832 220.722 37.565C220.585 37.3469 220.476 37.1288 220.394 36.9106C220.312 36.6652 220.272 36.4335 220.272 36.2153C220.272 36.0245 220.285 35.9154 220.312 35.8881L226.534 15.5609L223.996 10.5303Z" fill="black"/>
<path d="M243.368 46.563L260.599 10.5303H273L268.13 46.563H260.026L260.394 43.0865L255.114 34.4158H261.908L263.914 20.7552L263.955 19.7327L257.775 33.0661H252.29L255.401 38.383L251.472 46.563H243.368Z" fill="black"/>
</svg>
